<svg xmlns="http://www.w3.org/2000/svg" xmlns:xlink="http://www.w3.org/1999/xlink" width="772.17" height="316.05" viewBox="0 0 772.17 316.05">
  <defs>
    <style>
      .a {
        fill: #fff;
      }

      .b {
        fill: url(#a);
      }
    </style>
    <linearGradient id="a" data-name="Безымянный градиент 2" x1="240.51" y1="296.49" x2="50.51" y2="42.49" gradientUnits="userSpaceOnUse">
      <stop offset="0.02" stop-color="#69d0fe"/>
      <stop offset="0.69" stop-color="#66b889"/>
      <stop offset="1" stop-color="#64ae57"/>
    </linearGradient>
  </defs>
  <title>gradient_font_white</title>
  <g>
    <g>
      <g>
        <path class="a" d="M361.13,123.59v19c-3.8,2.56-10,4.49-16.41,4.49-13.6,0-22.71-9.36-22.71-23.39s9.11-23.39,22.71-23.39a24.06,24.06,0,0,1,15.53,5.3L357.89,110a19.34,19.34,0,0,0-13-4.74c-10.42,0-17.09,7.42-17.09,18.46s6.67,18.46,17.09,18.46a25.45,25.45,0,0,0,10.73-2.31V128.45H344.91v-4.87Z"/>
        <path class="a" d="M410.27,146.48l-9.54-16.09a18.87,18.87,0,0,1-1.93.13h-9v16h-5.49V100.94h14.16c9,0,15.28,5.86,15.28,14.72,0,6.3-3.06,11.1-8,13.41l11,17.4Zm-2.12-30.69c0-6.18-4.12-10-11.1-10h-7.3v19.77h7.67C404.16,125.58,408.15,121.84,408.15,115.79Z"/>
        <path class="a" d="M435.09,123.71c0-14,9.11-23.39,22.71-23.39s22.71,9.36,22.71,23.39S471.4,147.1,457.8,147.1,435.09,137.75,435.09,123.71Zm39.61,0c0-11-6.74-18.46-16.9-18.46s-16.9,7.42-16.9,18.46,6.74,18.46,16.9,18.46S474.7,134.75,474.7,123.71Z"/>
        <path class="a" d="M553.29,100.94l-12.35,46.53h-.62l-14.41-36.05L511.5,147.48h-.62l-12.35-46.53H504l8.17,32.56,13.29-33.62h.87l13.29,33.62,8.17-32.56Z"/>
        <path class="a" d="M572.74,100.94h5.49v45.54h-5.49Z"/>
        <path class="a" d="M628.19,146.48l-9.54-16.09a18.84,18.84,0,0,1-1.93.13h-9v16h-5.49V100.94h14.16c9,0,15.28,5.86,15.28,14.72,0,6.3-3.06,11.1-8,13.41l11,17.4Zm-2.12-30.69c0-6.18-4.12-10-11.1-10h-7.3v19.77h7.67C622.08,125.58,626.07,121.84,626.07,115.79Z"/>
        <path class="a" d="M654.45,100.94h25.82v4.87H659.93v15h18.78v4.87H659.93v16h20.65v4.87H654.45Z"/>
      </g>
      <g>
        <path class="a" d="M320.44,229.66l1.78-4.66a25.42,25.42,0,0,0,12.5,3.68c4.6,0,8.95-1.78,8.95-7,0-5-4.23-6.68-9.32-9.19-6.37-3.06-11.65-5.88-11.65-13,0-7.72,6.25-11.71,14-11.71a26.62,26.62,0,0,1,11.4,2.7l-1.35,5a21.44,21.44,0,0,0-9.93-2.76c-5.09,0-8.52,2.14-8.52,6.8,0,5.15,4.17,6.68,9.38,9.19,7.17,3.43,11.65,6.19,11.65,13.06,0,8.58-7,12-14.71,12A26.55,26.55,0,0,1,320.44,229.66Z"/>
        <path class="a" d="M370.27,210.72c0-13.79,8.95-23,22.31-23s22.31,9.19,22.31,23-8.95,23-22.31,23S370.27,224.51,370.27,210.72Zm38.92,0c0-10.85-6.62-18.14-16.61-18.14S376,199.87,376,210.72s6.62,18.14,16.61,18.14S409.19,221.57,409.19,210.72Z"/>
        <path class="a" d="M462.95,228.31v4.78H437V188.34h5.39v40Z"/>
        <path class="a" d="M483.17,216.85v-28.5h5.46l-.06,28.26c0,7.17,4.66,12.26,11.71,12.26S512,223.77,512,216.6L512,188.34h5.46v28.5c0,10.11-6.87,16.86-17.16,16.86S483.17,227,483.17,216.85Z"/>
        <path class="a" d="M552.19,193.13H537.6v-4.78h34.57v4.78H557.58v40h-5.39Z"/>
        <path class="a" d="M592.34,188.34h5.39v44.75h-5.39Z"/>
        <path class="a" d="M619.86,210.72c0-13.79,8.95-23,22.31-23s22.31,9.19,22.31,23-8.95,23-22.31,23S619.86,224.51,619.86,210.72Zm38.92,0c0-10.85-6.62-18.14-16.61-18.14s-16.61,7.29-16.61,18.14,6.62,18.14,16.61,18.14S658.78,221.57,658.78,210.72Z"/>
        <path class="a" d="M722.16,188.34v45.79h-.61L692,200.3v32.79h-5.39V187.3h.61l29.54,34.08v-33Z"/>
        <path class="a" d="M743.24,229.66,745,225a25.42,25.42,0,0,0,12.5,3.68c4.6,0,8.95-1.78,8.95-7,0-5-4.23-6.68-9.32-9.19-6.37-3.06-11.65-5.88-11.65-13,0-7.72,6.25-11.71,14-11.71a26.62,26.62,0,0,1,11.4,2.7l-1.35,5a21.44,21.44,0,0,0-9.93-2.76c-5.09,0-8.52,2.14-8.52,6.8,0,5.15,4.17,6.68,9.38,9.19,7.17,3.43,11.65,6.19,11.65,13.06,0,8.58-7,12-14.71,12A26.55,26.55,0,0,1,743.24,229.66Z"/>
      </g>
    </g>
    <path class="b" d="M218.88,47l-.27.16-.08,0-17.3,10,0-19.87L136.69,0,0,79.23l.25,158,136.94,78.8,136.69-79.23-.25-158Zm48.2,33.14L134.36,156.67l.09,58.64h0L86,187.42l-.09-58.62,133-76.73ZM196.82,39.53l0,20.12h0L81.47,126.26l.1,63.71,55.23,31.78L209.6,179.6v20.35l-72.63,42L64.3,200l0-83.9h0L196.81,39.54Zm72.65,194.76L137.18,311,4.65,234.7,4.41,81.76,136.7,5.09l55.58,32L59.85,113.57l.05,89L137,247l77-44.52V172l-75.15,43.49-.09-56.23L269.24,84Z"/>
  </g>
</svg>
